<?xml version="1.0" encoding="UTF-8" standalone="no"?>
<svg width="127px" height="127px" viewBox="0 0 127 127" version="1.1" xmlns="http://www.w3.org/2000/svg" xmlns:xlink="http://www.w3.org/1999/xlink" xmlns:sketch="http://www.bohemiancoding.com/sketch/ns">
    <!-- Generator: Sketch 3.3.3 (12072) - http://www.bohemiancoding.com/sketch -->
    <title>Untitled 17</title>
    <desc>Created with Sketch.</desc>
    <defs></defs>
    <g id="Page-1" stroke="none" stroke-width="1" fill="none" fill-rule="evenodd" sketch:type="MSPage">
        <rect id="background-white" fill="#FFFFFF" sketch:type="MSShapeGroup" x="0" y="0" width="127" height="127"></rect>
        <rect id="background-creamy" fill="#F3EADC" sketch:type="MSShapeGroup" x="3" y="3" width="121" height="121"></rect>
        <rect id="Rectangle-1" stroke="#3A0839" stroke-width="0.1" stroke-dasharray="2,2" sketch:type="MSShapeGroup" x="13" y="13" width="100" height="100"></rect>
        <text id="1,-1" sketch:type="MSTextLayer" font-family="Century Gothic" font-size="3" font-weight="normal" fill="#484848">
            <tspan x="112" y="10">1, 1</tspan>
        </text>
        <text id="0,-0" sketch:type="MSTextLayer" font-family="Century Gothic" font-size="3" font-weight="normal" fill="#3A0839">
            <tspan x="9" y="118">0, 0</tspan>
        </text>
        <text id="position" sketch:type="MSTextLayer" transform="translate(7.500000, 62.500000) rotate(-90.000000) translate(-7.500000, -62.500000) " font-family="Century Gothic" font-size="4" font-weight="normal" fill="#484848">
            <tspan x="0" y="64">position</tspan>
        </text>
        <text id="progress" sketch:type="MSTextLayer" font-family="Century Gothic" font-size="4" font-weight="normal" fill="#484848">
            <tspan x="54" y="9">progress</tspan>
        </text>
        <path d="M13,112.595982 C13,112.595982 17.0173199,95.9648446 19.6417514,112.595982 C22.2661829,129.22712 26.2779121,112.595982 26.2779121,112.595982 C26.2779121,112.595982 29.5033366,100.435826 34.4140571,112.595982 C39.3247776,124.756139 43.6617252,112.595982 43.6617252,112.595982 C43.6617252,112.595982 50.196174,89.3465413 49.5598618,112.595982 C48.9235497,135.845424 56.9988668,112.595982 56.9988668,112.595982 C56.9988668,112.595982 65.464346,88.7550219 71.5137014,112.595982 C77.5630569,136.436943 84.5901242,112.595982 84.5901242,112.595982 C84.5901242,112.595982 89.5794972,97.1964282 90.2506861,112.595982 C90.921875,127.995537 99.5100569,112.595982 99.5100569,112.595982 C99.5100569,112.595982 103.656647,103.890068 105.252708,112.595982 C106.84877,121.301897 110.195841,112.595982 110.195841,112.595982 C110.195841,112.595982 111.303581,109.011719 112.740517,112.595983" id="Path-1" stroke="#3A0839" stroke-width="0.5" sketch:type="MSShapeGroup"></path>
    </g>
</svg>