<?xml version="1.0" encoding="UTF-8" standalone="no"?>
<svg width="127px" height="127px" viewBox="0 0 127 127" version="1.1" xmlns="http://www.w3.org/2000/svg" xmlns:xlink="http://www.w3.org/1999/xlink" xmlns:sketch="http://www.bohemiancoding.com/sketch/ns">
    <!-- Generator: Sketch 3.3.3 (12072) - http://www.bohemiancoding.com/sketch -->
    <title>Untitled 17</title>
    <desc>Created with Sketch.</desc>
    <defs></defs>
    <g id="Page-1" stroke="none" stroke-width="1" fill="none" fill-rule="evenodd" sketch:type="MSPage">
        <rect id="background-white" fill="#FFFFFF" sketch:type="MSShapeGroup" x="0" y="0" width="127" height="127"></rect>
        <rect id="background-creamy" fill="#F3EADC" sketch:type="MSShapeGroup" x="3" y="3" width="121" height="121"></rect>
        <rect id="Rectangle-1" stroke="#3A0839" stroke-width="0.1" stroke-dasharray="2,2" sketch:type="MSShapeGroup" x="13" y="13" width="100" height="100"></rect>
        <text id="1,-1" sketch:type="MSTextLayer" font-family="Century Gothic" font-size="3" font-weight="normal" fill="#484848">
            <tspan x="112" y="10">1, 1</tspan>
        </text>
        <text id="0,-0" sketch:type="MSTextLayer" font-family="Century Gothic" font-size="3" font-weight="normal" fill="#3A0839">
            <tspan x="9" y="118">0, 0</tspan>
        </text>
        <text id="angle" sketch:type="MSTextLayer" transform="translate(7.000000, 62.500000) rotate(-90.000000) translate(-7.000000, -62.500000) " font-family="Century Gothic" font-size="4" font-weight="normal" fill="#484848">
            <tspan x="1" y="64">angle</tspan>
        </text>
        <text id="progress" sketch:type="MSTextLayer" font-family="Century Gothic" font-size="4" font-weight="normal" fill="#484848">
            <tspan x="54" y="9">progress</tspan>
        </text>
        <path d="M13,112.909843 L16.1308594,112.909843 C24.128418,-29.5703735 37.7357688,23.2827309 37.7357688,23.2827309 C37.7357688,23.2827309 48.4207115,19.3799044 48.420711,32.4955507 C48.420711,32.4955507 48.4207115,41.4642364 51.4679491,33.0448329 C58.9122391,10.5267192 61.2480469,32.2718256 62.4205542,32.2718262 C62.4205546,19.8237961 68.0592461,9.43044122 72,28.8223683 C73.6251608,35.53696 69.8918457,9.60296735 78.4951172,9.60296735 C81.7340668,9.40126419 82.730594,19.5463918 83.328125,26.9672245 C83.9301836,34.4442862 87.0961573,39.974048 87.7888322,31.7754178 C88.3742722,18.884438 94.9388046,15.6065482 97.8170547,22.4662483 C101.679318,34.7631952 103.747127,19.5509663 106.789391,12.8780324 C108.513522,9.09630453 111.208281,13.1935764 112.819008,13.1935763" id="angle" stroke="#3A0839" stroke-width="0.5" sketch:type="MSShapeGroup"></path>
    </g>
</svg>