<?xml version="1.0" encoding="UTF-8" standalone="no"?>
<svg width="397px" height="140px" viewBox="0 0 397 140" version="1.1" xmlns="http://www.w3.org/2000/svg" xmlns:xlink="http://www.w3.org/1999/xlink" xmlns:sketch="http://www.bohemiancoding.com/sketch/ns">
    <!-- Generator: Sketch 3.3.2 (12043) - http://www.bohemiancoding.com/sketch -->
    <title>motion-lettering</title>
    <desc>Created with Sketch.</desc>
    <defs></defs>
    <g id="Page-1" stroke="none" stroke-width="1" fill="none" fill-rule="evenodd" sketch:type="MSPage">
        <g id="Group-+-for-the-web-+-Shape-Copy-21-+-Group" sketch:type="MSLayerGroup">
            <g id="Group-+-for-the-web" fill="#FFFFFF" sketch:type="MSShapeGroup">
                <g id="Group">
                    <path d="M226.668105,90.4704461 C236.418105,84.3304461 253.403503,73.2023482 257.31073,72.1085982 C253.403503,78.089067 234.678105,91.9804461 227.228105,97.4604461 C225.088105,98.8104461 222.888105,100.820446 220.168105,100.430446 C217.258105,99.4004461 216.058105,95.4204461 217.828105,92.9204461 C223.388105,82.9704461 232.288105,81.1304461 226.668105,90.4704461 Z" id="Shape-Copy-14"></path>
                    <path d="M70.6284771,75.9675136 C69.8984771,78.9575136 67.8784771,81.4075136 66.2284771,83.9375136 C62.8098447,88.7756687 51.6603411,105.898056 49.4378738,107.712486 C46.9012076,109.78343 45.5123549,109.674787 46.1128979,106.907108 C46.6838123,104.275977 57.0986212,85.606842 61.9884771,77.7575136 C44.8584771,83.0775136 28.5284771,90.7075136 12.9184771,99.4875136 C-3.32152291,108.757514 -4.40152291,101.077514 10.5384771,93.1675136 C27.6084771,84.2275136 45.3984771,76.5075136 63.9984771,71.3475136 C66.9984771,70.0375136 70.9884771,72.6175136 70.6284771,75.9675136 Z" id="Shape-Copy-16"></path>
                    <path d="M269.154641,19.0907377 C271.418222,19.5342149 273.423014,21.5504396 273.163269,23.9675136 C272.433269,26.9575136 270.413269,29.4075136 268.763269,31.9375136 C257.733269,47.5475136 245.383269,62.1875136 234.783269,78.1075136 C227.979881,89.2746735 222.993269,98.6775136 221.393269,99.8375136 C217.813269,100.897514 214.133269,96.0075136 217.063269,93.1175136 C232.603269,70.4775136 249.983269,49.0975136 264.523269,25.7575136 C268.096756,20.3999637 268.28096,18.9195674 269.154641,19.0907377 Z" id="Shape-Copy-12"></path>
                    <path d="M299.52857,24.3411014 C299.037579,26.3521463 292.635722,31.758153 291.525948,33.4598064 C289.812462,33.4598064 293.717393,29.1232183 293.71739,25.5450379 C282.195919,29.1232182 271.21252,34.2550821 260.713385,40.1604247 C249.790519,46.3953366 239.345192,53.5315194 229.935654,61.8985425 C224.696176,66.566319 219.766089,71.6712792 215.979406,77.6169773 C214.977246,79.3791638 212.878765,80.5494709 210.854268,79.8903324 C208.74906,79.1504831 208.500202,76.2717967 209.784849,74.6912096 C215.454785,66.7815479 222.772568,60.2237927 230.38629,54.2310133 C239.392273,47.2831557 249.064122,41.2298432 259.11262,35.9096541 C270.593736,29.896697 282.559118,24.7043001 295.069297,21.2337343 C297.087068,20.352641 299.770703,22.0879239 299.52857,24.3411014 Z" id="Shape-Copy-13" transform="translate(254.271932, 50.538218) scale(-1, 1) rotate(34.000000) translate(-254.271932, -50.538218) "></path>
                    <path d="M278.55635,78.0809718 C281.59635,76.5709718 285.08635,75.2609718 288.46635,76.4809718 C291.57635,77.1609718 294.45635,80.3909718 293.13635,83.6809718 C291.09635,87.5409718 287.69635,90.4409718 284.52635,93.3509718 C280.38635,96.7409718 276.07635,100.270972 270.87635,101.820972 C267.50635,103.160972 264.47635,99.1709718 265.07635,96.0609718 C265.90635,92.6209718 267.99635,89.6809718 269.73635,86.6509718 C272.280519,82.8900127 278.03635,78.0809718 278.55635,78.0809718 Z M270.17657,96.9435729 C277.131522,94.2658519 285.964827,86.2918948 287.238991,83.6577001 C289.142481,79.722441 283.867577,79.056628 282.02635,79.7009718 C278.952638,80.7766282 263.221618,99.6212939 270.17657,96.9435729 Z" id="Shape-Copy-9"></path>
                    <path d="M282.755271,94.8426895 C289.305271,93.5026895 299.224839,87.4926896 304.354839,83.4226896 C305.414839,82.6926896 306.604839,81.4026896 308.034839,81.9926896 C308.656015,82.5261696 309.271849,83.0756714 309.882343,83.6372921 C310.107234,83.8441785 310.242952,84.5940218 310.085969,84.7589566 C307.850218,87.107955 305.495274,89.374107 303.934839,92.2426896 C310.324839,89.7526896 314.964839,84.5026896 320.384839,80.5126896 C322.764839,78.8026896 325.374839,76.8226896 328.474839,77.0126896 C331.394839,77.6426896 333.144839,81.6726896 331.054839,84.0426896 C328.094839,87.5526896 324.971352,92.2426901 324.971352,94.8426895 C324.967871,94.9057306 324.965529,94.9676941 324.964072,95.0285957 C324.960485,95.1785813 324.962989,95.3221266 324.971354,95.4594684 C325.223035,99.5921623 330.780373,98.1079645 335.327881,97.4583206 C355.947881,93.8983206 376.494839,84.3126896 396.144839,77.2826896 C395.904839,77.7326896 395.434839,78.6226896 395.204839,79.0626896 C376.434839,85.7826896 358.714839,95.3026896 339.494839,100.73269 C333.474839,102.01269 325.794839,104.18269 320.814839,99.3326896 C317.094839,95.3326896 319.194839,89.5826896 321.434839,85.4126896 C315.674839,90.3526896 310.314839,96.2926896 303.054839,99.0126896 C294.061789,100.732689 299.394839,92.8426896 300.434839,90.3126896 C296.624839,93.3226896 283.072223,99.1961727 270.587172,101.916172 C268.827172,102.586172 284.385271,92.8426895 282.755271,94.8426895 Z" id="Shape-Copy-8"></path>
                    <path d="M264.349915,58.3591342 C270.05037,57.9050973 272.259028,59.9104266 277.877603,58.3591341 C277.963382,58.6744375 270.920481,62.142773 266.459933,63.6625351 C265.348696,63.940002 262.950514,63.6002963 262.386121,61.455335 C261.821729,59.3103736 264.349915,58.3591342 264.349915,58.3591342 Z" id="Shape-Copy-7" transform="translate(270.091169, 61.018094) rotate(-36.000000) translate(-270.091169, -61.018094) "></path>
                    <path d="M265.179587,60.8778013 C270.880043,60.4237645 271.750154,64.6614401 267.289606,66.1812022 C266.178368,66.4586692 263.780186,66.1189634 263.215794,63.9740021 C262.651402,61.8290407 265.179587,60.8778013 265.179587,60.8778013 Z" id="Shape-Copy-15" transform="translate(266.630175, 63.554162) rotate(-36.000000) translate(-266.630175, -63.554162) "></path>
                    <path d="M274.867874,83.9053456 C267.217874,85.9653456 255.517808,98.4104747 247.737808,100.070475 C243.937808,101.000475 238.197808,97.6704747 240.547808,93.3104747 C244.297808,86.4504747 248.655056,79.5931307 254.249002,74.0619146 C257.672082,70.677221 260.279364,71.131034 261.113646,75.0084845 C251.570853,84.4855801 248.887808,91.1904747 247.557808,93.5404747 C254.927808,92.4604747 280.250613,74.4754577 282.120613,77.5554577 C283.046625,78.7954582 276.677874,83.1953456 274.867874,83.9053456 Z" id="Shape-Copy-10"></path>
                    <path d="M180.596906,30.9675136 C179.866906,33.9575136 177.846906,36.4075136 176.196906,38.9375136 C165.166906,54.5475136 152.816906,69.1875136 142.216906,85.1075136 C155.286906,75.6375136 169.206906,67.2375136 183.886906,60.5275136 C187.526906,58.9775136 192.716906,56.5975136 195.736906,60.5175136 C197.826906,62.2775136 195.386906,64.3875136 194.386906,66.0375136 C187.516906,74.4575136 180.636906,82.9375136 175.016906,92.2775136 C184.766906,86.1375136 205.466906,73.2775136 205.986906,73.2775136 C209.026906,71.7675136 212.516906,70.4575136 215.896906,71.6775136 C219.006906,72.3575136 221.886906,75.5875136 220.566906,78.8775136 C218.526906,82.7375136 215.126906,85.6375136 211.956906,88.5475136 C207.816906,91.9375136 203.506906,95.4675136 198.306906,97.0175136 C194.936906,98.3575136 191.906906,94.3675136 192.506906,91.2575136 C193.336906,87.8175136 195.426906,84.8775136 197.166906,81.8475136 C190.086906,87.7875136 183.026906,93.7875136 175.576906,99.2675136 C173.436906,100.617514 171.236906,102.627514 168.516906,102.237514 C165.606906,101.207514 164.406906,97.2275136 166.176906,94.7275136 C171.736906,84.7775136 178.586906,75.6175136 185.196906,66.3575136 C165.566906,74.7675136 148.086906,87.6375136 133.156906,102.827514 C131.756906,104.217514 130.426906,105.677514 128.826906,106.837514 C125.246906,107.897514 121.566906,103.007514 124.496906,100.117514 C140.036906,77.4775136 157.416906,56.0975136 171.956906,32.7575136 C154.826906,38.0775136 138.496906,45.7075136 122.886906,54.4875136 C106.646906,63.7575136 91.1169057,74.3675136 77.1269057,86.8075136 C69.3369057,93.7475136 62.0069057,101.337514 56.3769057,110.177514 C54.8869057,112.797514 51.7669057,114.537514 48.7569057,113.557514 C45.6269057,112.457514 45.2569057,108.177514 47.1669057,105.827514 C55.5969057,94.0675136 66.4769057,84.3175136 77.7969057,75.4075136 C91.1869057,65.0775136 105.566906,56.0775136 120.506906,48.1675136 C137.576906,39.2275136 155.366906,31.5075136 173.966906,26.3475136 C176.966906,25.0375136 180.956906,27.6175136 180.596906,30.9675136 Z M196.644299,91.3924949 C194.328955,97.7203535 217.752309,79.7350132 215.886906,76.6875136 C214.021502,73.640014 211.296372,74.9565957 209.456906,75.8975136 C208.185788,76.5477116 198.704299,85.7624949 196.644299,91.3924949 Z" id="Shape-Copy-11"></path>
                </g>
                <polygon id="Star-1-Copy" transform="translate(356.612241, 72.890352) rotate(37.000000) translate(-356.612241, -72.890352) " points="356.613917 76.4350003 351.531339 79.4141594 353.269373 74.4802233 349.448039 70.9859903 354.489522 70.9859902 356.613917 65.7770955 358.603737 70.9859902 363.779795 70.9859903 359.863112 74.4802233 361.103743 79.7709661 "></polygon>
            </g>
            <path d="M197.183041,94.1180445 C205.59845,92.6651418 227.532342,78.9909527 230.571275,74.1748044 C230.636837,74.0708996 235.024854,74.1617157 230.571274,78.990953 C223.785657,81.749683 208.414278,95.3966265 201.35,97.3924136 C195.33,98.6724136 192.423041,94.7980445 197.183041,94.1180445 Z" id="Shape-Copy-21" fill="#FFFFFF" sketch:type="MSShapeGroup"></path>
            <g id="Group" transform="translate(191.000000, 128.000000)" sketch:type="MSShapeGroup">
                <g id="Group-Copy-+-b-+-w" transform="translate(82.000000, 0.000000)">
                    <g id="Group-Copy" transform="translate(11.500000, 1.500000)" stroke="#FFFFFF" stroke-width="0.7">
                        <path d="M1.3361304,1.88888889 L1.3361304,8.20215004" id="Path-439"></path>
                        <path d="M0.888888889,2.33333333 L19.5029846,2.33333328" id="Path-440"></path>
                        <path d="M0.888888889,5.04551946 L17.5000625,5.04551941" id="Path-440-Copy"></path>
                        <path d="M0.888888889,7.84444444 L19.50065,7.84444439" id="Path-440-Copy-2"></path>
                    </g>
                    <path d="M6.15820312,10 L4.76367188,5.74023438 C4.67382768,5.45117043 4.55859445,5.02734654 4.41796875,4.46875 L4.3828125,4.46875 L4.25976562,4.90234375 L3.99609375,5.75195312 L2.578125,10 L2.00390625,10 L0.181640625,3.63085938 L0.802734375,3.63085938 L1.82226562,7.32226562 C2.06054807,8.2363327 2.2167965,8.90820098 2.29101562,9.33789062 L2.32617188,9.33789062 C2.55664178,8.42382355 2.72460885,7.81640775 2.83007812,7.515625 L4.14257812,3.63085938 L4.66992188,3.63085938 L5.91796875,7.50390625 C6.19922016,8.42187959 6.37109344,9.02929539 6.43359375,9.32617188 L6.46875,9.32617188 C6.50000016,9.07226436 6.65624859,8.39258365 6.9375,7.28710938 L7.91015625,3.63085938 L8.49609375,3.63085938 L6.76757812,10 L6.15820312,10 Z" id="w" fill="#FFFFFF"></path>
                    <path d="M37.7558594,3.5078125 C38.6464888,3.5078125 39.3173806,3.78808313 39.7685547,4.34863281 C40.2197288,4.90918249 40.4453125,5.72851023 40.4453125,6.80664062 C40.4453125,7.86523967 40.2080102,8.68163775 39.7333984,9.25585938 C39.2587867,9.830081 38.5918012,10.1171875 37.7324219,10.1171875 C37.2792946,10.1171875 36.8710956,10.0234384 36.5078125,9.8359375 C36.1445294,9.64843656 35.8574229,9.38281422 35.6464844,9.0390625 L35.59375,9.0390625 L35.4296875,10 L35.0664062,10 L35.0664062,0.8828125 L35.6464844,0.8828125 L35.6464844,3.17382812 C35.6464844,3.51757984 35.638672,3.83398293 35.6230469,4.12304688 L35.6054688,4.62109375 L35.6464844,4.62109375 C35.8886731,4.23827934 36.1806624,3.95703215 36.5224609,3.77734375 C36.8642595,3.59765535 37.2753882,3.5078125 37.7558594,3.5078125 L37.7558594,3.5078125 Z M37.7441406,4.03515625 C36.9941369,4.03515625 36.4570329,4.24999785 36.1328125,4.6796875 C35.8085921,5.10937715 35.6464844,5.81835443 35.6464844,6.80664062 L35.6464844,6.90625 C35.6464844,7.8671923 35.815428,8.55663854 36.1533203,8.97460938 C36.4912126,9.39258021 37.0175746,9.6015625 37.7324219,9.6015625 C38.4277379,9.6015625 38.9511701,9.35840087 39.3027344,8.87207031 C39.6542986,8.38573976 39.8300781,7.69336387 39.8300781,6.79492188 C39.8300781,4.95506893 39.1347726,4.03515625 37.7441406,4.03515625 L37.7441406,4.03515625 Z" id="b" fill="#FFFFFF"></path>
                </g>
                <circle id="Oval-60-Copy-2" fill="#FFFFFF" cx="136" cy="6.73046875" r="1"></circle>
                <circle id="Oval-60-Copy-3" fill="#FFFFFF" cx="1" cy="6.73046875" r="1"></circle>
                <g id="Shape-Copy-2-+-f-+-Rectangle-17" transform="translate(16.000000, 0.000000)">
                    <path d="M26.0356394,3.57862621 C27.0341805,3.5453415 27.907904,4.50227677 27.7880791,5.49416098 C27.7481374,6.26470191 27.1356989,6.85716966 26.4400485,7.09848377 C26.9193483,8.03544821 27.3570422,8.99238348 27.8330134,9.92934793 C27.5617431,9.92934793 27.2888085,9.9326764 27.0175382,9.93933334 C26.5515523,8.99904042 26.0988803,8.0537548 25.6395514,7.11013341 C23.8921044,7.11179765 17.6116136,7.1068049 15.8641665,7.11013338 C15.8708235,8.05042629 15.867495,8.99071921 15.8691593,9.93267636 C15.6295094,9.92768366 15.3898595,9.92768366 15.1502096,9.92934789 C15.1485454,7.81244065 15.1502096,5.69386918 15.1485454,3.5752977 C17.2671169,3.57696194 23.9187321,3.57030503 26.0356394,3.57862621 Z M15.8595901,4.28426188 C15.8645829,4.9882334 15.8645829,5.69220491 15.8612544,6.39617642 C17.7385117,6.38951948 24.1550535,6.41115461 26.0339751,6.39617649 C26.6014793,6.41115461 27.0974215,5.90023439 27.0891003,5.33772287 C27.0924287,4.78020406 26.5948224,4.26928384 26.0306467,4.29258313 C24.1533893,4.28426196 22.2744677,4.29258313 20.3972103,4.28925466 L15.8595901,4.28426188 Z" id="Shape-Copy-2" fill="#FFFFFF"></path>
                    <rect id="Rectangle-17" stroke="#FFFFFF" stroke-width="0.7" x="7.68619804" y="3.5" width="3.30999994" height="6.5" rx="1"></rect>
                    <path d="M4.11979179,4.13476562 L2.61979179,4.13476562 L2.61979179,10 L2.03971366,10 L2.03971366,4.13476562 L0.856119911,4.13476562 L0.856119911,3.79492188 L2.03971366,3.578125 L2.03971366,3.0859375 C2.03971366,2.30468359 2.18326691,1.73144714 2.47037772,1.36621094 C2.75748853,1.00097474 3.2272104,0.818359375 3.87955741,0.818359375 C4.23112167,0.818359375 4.58268065,0.871093223 4.93424491,0.9765625 L4.79947929,1.48046875 C4.48697772,1.38281201 4.17643395,1.33398438 3.86783866,1.33398438 C3.4147114,1.33398438 3.09342555,1.4677721 2.90397147,1.73535156 C2.7145174,2.00293103 2.61979179,2.43749699 2.61979179,3.0390625 L2.61979179,3.63085938 L4.11979179,3.63085938 L4.11979179,4.13476562 Z" id="f" fill="#FFFFFF"></path>
                </g>
                <path d="M53.7480469,9.6015625 C54.1152362,9.6015625 54.4355455,9.57031281 54.7089844,9.5078125 L54.7089844,9.9765625 C54.427733,10.070313 54.1035175,10.1171875 53.7363281,10.1171875 C53.1738253,10.1171875 52.7587904,9.96679838 52.4912109,9.66601562 C52.2236315,9.36523287 52.0898438,8.89258135 52.0898438,8.24804688 L52.0898438,4.13476562 L51.1464844,4.13476562 L51.1464844,3.79492188 L52.0898438,3.53125 L52.3828125,2.08984375 L52.6816406,2.08984375 L52.6816406,3.63085938 L54.5507812,3.63085938 L54.5507812,4.13476562 L52.6816406,4.13476562 L52.6816406,8.16601562 C52.6816406,8.65429932 52.7675773,9.01562383 52.9394531,9.25 C53.111329,9.48437617 53.3808575,9.6015625 53.7480469,9.6015625 L53.7480469,9.6015625 Z M62.5273438,10 L62.5273438,5.86914062 C62.5273438,5.22851242 62.3925795,4.76269677 62.1230469,4.47167969 C61.8535143,4.18066261 61.4355497,4.03515625 60.8691406,4.03515625 C60.1074181,4.03515625 59.5498065,4.22753714 59.1962891,4.61230469 C58.8427717,4.99707224 58.6660156,5.62108943 58.6660156,6.484375 L58.6660156,10 L58.0859375,10 L58.0859375,0.8828125 L58.6660156,0.8828125 L58.6660156,3.78320312 L58.6367188,4.59765625 L58.6777344,4.59765625 C58.9160168,4.21484184 59.2167951,3.93750086 59.5800781,3.765625 C59.9433612,3.59374914 60.3945286,3.5078125 60.9335938,3.5078125 C62.3789135,3.5078125 63.1015625,4.28319537 63.1015625,5.83398438 L63.1015625,10 L62.5273438,10 Z M69.7363281,10.1171875 C68.8105422,10.1171875 68.0888698,9.8320341 67.5712891,9.26171875 C67.0537083,8.6914034 66.7949219,7.89258326 66.7949219,6.86523438 C66.7949219,5.8496043 67.0449194,5.03613587 67.5449219,4.42480469 C68.0449244,3.81347351 68.7187458,3.5078125 69.5664062,3.5078125 C70.31641,3.5078125 70.908201,3.76952863 71.3417969,4.29296875 C71.7753928,4.81640887 71.9921875,5.52733926 71.9921875,6.42578125 L71.9921875,6.89453125 L67.4042969,6.89453125 C67.4121094,7.76953562 67.6162089,8.4374977 68.0166016,8.8984375 C68.4169942,9.3593773 68.9902306,9.58984375 69.7363281,9.58984375 C70.0996112,9.58984375 70.4189439,9.56445338 70.6943359,9.51367188 C70.9697279,9.46289037 71.3183573,9.35351646 71.7402344,9.18554688 L71.7402344,9.71289062 C71.3808576,9.86914141 71.0488296,9.97558565 70.7441406,10.0322266 C70.4394516,10.0888675 70.1035175,10.1171875 69.7363281,10.1171875 L69.7363281,10.1171875 Z M69.5664062,4.0234375 C68.9531219,4.0234375 68.4609394,4.22558392 68.0898438,4.62988281 C67.7187481,5.03418171 67.5019534,5.61718369 67.4394531,6.37890625 L71.3769531,6.37890625 C71.3769531,5.64062131 71.2167985,5.06347864 70.8964844,4.64746094 C70.5761703,4.23144323 70.1328153,4.0234375 69.5664062,4.0234375 L69.5664062,4.0234375 Z" id="the" fill="#FFFFFF"></path>
            </g>
        </g>
    </g>
</svg>